# xmcd
#
# Track frame offsets:
# 179
# 1744
# 16570
# 29459
# 47107
# 64702
# 83294
# 103322
# 119159
# 132726
# 155249
# 170172
# 185676
#
# Disc length: 2734 seconds
#
#
# Revision: 0
# Processed by: cddbd v1.5.1PL0 Copyright (c) Steve Scherf et al.
# Submitted via: FreeRIP 2.50 
#
DISCID=b00aac0d
DTITLE=Shannon Brown - Corn Fed
DYEAR=2006
DGENRE=Country
TTITLE0=AM Radio
TTITLE1=Corn Fed
TTITLE2=Big Man
TTITLE3=High Horses
TTITLE4=Turn To Me
TTITLE5=Can I Get An Amen
TTITLE6=Something Good
TTITLE7=Good Ole Days
TTITLE8=I Love 'Em All
TTITLE9=Why
TTITLE10=Pearls
TTITLE11=She Brings The Lightning Down
TTITLE12=Small Town Girl
EXTD=
EXTT0=
EXTT1=
EXTT2=
EXTT3=
EXTT4=
EXTT5=
EXTT6=
EXTT7=
EXTT8=
EXTT9=
EXTT10=
EXTT11=
EXTT12=
PLAYORDER=
